<?xml version="1.0" encoding="utf-8"?><!-- Uploaded to: SVG Repo, www.svgrepo.com, Generator: SVG Repo Mixer Tools -->
<svg width="800px" height="800px" viewBox="0 0 24 24" fill="none" xmlns="http://www.w3.org/2000/svg">
<path fill-rule="evenodd" clip-rule="evenodd" d="M14.8814 4.5H9.11862L7.46862 7.03125H3.75L3 7.78125V18.75L3.75 19.5H20.25L21 18.75V7.78125L20.25 7.03125H16.5314L14.8814 4.5ZM8.28138 8.53125L9.93138 6H14.0686L15.7186 8.53125H19.5V18H4.5V8.53125H8.28138ZM9.75 12.75C9.75 11.5074 10.7574 10.5 12 10.5C13.2426 10.5 14.25 11.5074 14.25 12.75C14.25 13.9926 13.2426 15 12 15C10.7574 15 9.75 13.9926 9.75 12.75ZM12 9C9.92893 9 8.25 10.6789 8.25 12.75C8.25 14.8211 9.92893 16.5 12 16.5C14.0711 16.5 15.75 14.8211 15.75 12.75C15.75 10.6789 14.0711 9 12 9Z" fill="#080341"/>
</svg>