<?xml version="1.0" encoding="UTF-8"?>
<svg id="_图层_2" data-name="图层 2" xmlns="http://www.w3.org/2000/svg" viewBox="0 0 460 120">
  <defs>
    <style>
      .cls-1, .cls-2, .cls-3, .cls-4, .cls-5, .cls-6 {
        stroke-width: 0px;
      }

      .cls-1, .cls-7 {
        fill: none;
      }

      .cls-8 {
        fill: #4e4e50;
      }

      .cls-8, .cls-9, .cls-10, .cls-7 {
        stroke: #000;
        stroke-width: .5px;
      }

      .cls-8, .cls-10, .cls-7 {
        stroke-linecap: round;
        stroke-linejoin: round;
      }

      .cls-2, .cls-3, .cls-4, .cls-11 {
        isolation: isolate;
      }

      .cls-2, .cls-6 {
        fill: #060707;
      }

      .cls-3, .cls-5 {
        fill: #fff;
      }

      .cls-4, .cls-10 {
        fill: #f16a21;
      }

      .cls-9 {
        fill: #040000;
        stroke-miterlimit: 10;
      }
    </style>
  </defs>
  <g id="_图层_1-2" data-name="图层 1">
    <g>
      <rect class="cls-1" width="460" height="120"/>
      <g>
        <path class="cls-4" d="m143.5,72.29h-27.78s0-1.08,0-1.08c0-.66-.55-1.19-1.23-1.19h-2.46s0-2.38,0-2.38c0-.66-.55-1.19-1.23-1.19h-14.75c-.68,0-1.23.53-1.23,1.19v.6s-4.3,0-4.3,0c-1.02,0-1.84.8-1.84,1.79v5.96c0,.99.83,1.79,1.84,1.79h4.3s0,.6,0,.6c0,.66.55,1.19,1.23,1.19h14.75c.68,0,1.23-.53,1.23-1.19v-2.38s2.46,0,2.46,0c.68,0,1.23-.53,1.23-1.19v-1.08s27.78,0,27.78,0v-1.42Zm-48.68,4.28h-4.3c-.34,0-.61-.27-.61-.6v-5.96c0-.33.28-.6.61-.6h4.3s0,7.15,0,7.15Zm19.67-1.79h-2.46s0-3.58,0-3.58h2.46s0,3.58,0,3.58Z"/>
        <rect class="cls-1" x="88.5" y="63" width="55" height="20"/>
        <rect class="cls-3" x="112.03" y="71.21" width="2.46" height="3.58"/>
        <path class="cls-3" d="m94.82,76.58h-4.3c-.34,0-.61-.27-.61-.6v-5.96c0-.33.28-.6.61-.6h4.3s0,7.15,0,7.15Z"/>
      </g>
      <g>
        <path class="cls-4" d="m131.5,73.71h27.78v1.08c0,.66.55,1.19,1.23,1.19h2.46v2.38c0,.66.55,1.19,1.23,1.19h14.75c.68,0,1.23-.53,1.23-1.19v-.6h4.3c1.02,0,1.84-.8,1.84-1.79v-5.96c0-.99-.83-1.79-1.84-1.79h-4.3v-.6c0-.66-.55-1.19-1.23-1.19h-14.75c-.68,0-1.23.53-1.23,1.19v2.38h-2.46c-.68,0-1.23.53-1.23,1.19v1.08h-27.78v1.42Zm48.68-4.28h4.3c.34,0,.61.27.61.6v5.96c0,.33-.28.6-.61.6h-4.3v-7.15Zm-19.67,1.79h2.46v3.58h-2.46s0-3.58,0-3.58Z"/>
        <rect class="cls-1" x="131.5" y="63" width="55" height="20" transform="translate(318 146) rotate(180)"/>
        <rect class="cls-3" x="160.51" y="71.21" width="2.46" height="3.58"/>
        <path class="cls-3" d="m180.18,69.42h4.3c.34,0,.61.27.61.6v5.96c0,.33-.28.6-.61.6h-4.3v-7.15Z"/>
      </g>
      <g>
        <path class="cls-3" d="m87.5,35c1.38,0,2.5,1.12,2.5,2.5v37.5H30v-37.5c0-1.38,1.12-2.5,2.5-2.5h55Z"/>
        <g>
          <path class="cls-2" d="m87.5,35c1.38,0,2.5,1.12,2.5,2.5v37.5H30v-37.5c0-1.38,1.12-2.5,2.5-2.5h55Zm-55-5c-4.14,0-7.5,3.36-7.5,7.5v42.5h70v-42.5c0-4.14-3.36-7.5-7.5-7.5h-55Zm-12.5,52.5h80c0,4.14-3.36,7.5-7.5,7.5H27.5c-4.14,0-7.5-3.36-7.5-7.5"/>
          <g class="cls-11">
            <path class="cls-6" d="m69.72,67.54h-5.08v-10.35h-9.51v10.35h-5.08v-24h5.08v9.41h9.51v-9.41h5.08v24Z"/>
          </g>
        </g>
      </g>
      <g>
        <g>
          <rect class="cls-9" x="185.15" y="22.5" width="89.74" height="75"/>
          <line class="cls-7" x1="185.11" y1="28.43" x2="185.11" y2="28.43"/>
          <line class="cls-7" x1="185.11" y1="91.57" x2="185.11" y2="91.57"/>
          <polyline class="cls-7" points="185.11 22.5 185.11 22.55 185.11 22.68 185.11 22.94 185.11 23.25 185.11 23.67 185.11 24.19 185.11 24.76 185.11 25.39 185.11 26.09 185.11 26.84 185.11 27.65 185.11 28.48 185.11 29.32 185.11 30.17"/>
          <polyline class="cls-7" points="185.11 30.17 185.11 89.83 185.11 90.68 185.11 91.52 185.11 92.35 185.11 93.16 185.11 93.91 185.11 94.61 185.11 95.24 185.11 95.81 185.11 96.33 185.11 96.75 185.11 97.06 185.11 97.32 185.11 97.45 185.11 97.5"/>
          <line class="cls-7" x1="185.11" y1="95.5" x2="185.11" y2="95.5"/>
          <line class="cls-7" x1="185.11" y1="91.59" x2="185.11" y2="91.59"/>
          <line class="cls-7" x1="185.11" y1="24.5" x2="185.11" y2="24.5"/>
          <line class="cls-7" x1="185.11" y1="28.41" x2="185.11" y2="28.41"/>
          <polygon class="cls-8" points="183.16 97.5 180 96.28 180 23.72 183.16 22.5 183.16 97.5"/>
          <rect class="cls-8" x="183.16" y="22.5" width="1.95" height="75"/>
          <polygon class="cls-10" points="276.84 30.17 276.84 89.83 276.84 90.68 276.84 91.52 276.84 92.35 276.84 93.16 276.84 93.91 276.84 94.61 276.84 95.24 276.84 95.81 276.84 96.33 276.84 96.75 276.84 97.06 276.84 97.32 276.84 97.45 276.84 97.5 280 96.28 280 96.23 280 96.07 280 95.86 280 95.52 280 95.13 280 94.64 280 94.09 280 93.47 280 92.82 280 92.11 280 91.36 280 90.58 280 89.83 280 30.17 280 29.42 280 28.64 280 27.89 280 27.18 280 26.53 280 25.91 280 25.36 280 24.87 280 24.48 280 24.14 280 23.93 280 23.77 280 23.72 276.84 22.5 276.84 22.55 276.84 22.68 276.84 22.94 276.84 23.25 276.84 23.67 276.84 24.19 276.84 24.76 276.84 25.39 276.84 26.09 276.84 26.84 276.84 27.65 276.84 28.48 276.84 29.32 276.84 30.17"/>
          <rect class="cls-8" x="274.89" y="22.5" width="1.95" height="75"/>
        </g>
        <g>
          <path class="cls-5" d="m196,74.95h9.25c.79,0,1.44.64,1.44,1.44v5.14c0,.79-.64,1.44-1.44,1.44h-9.25c-.79,0-1.44-.64-1.44-1.44v-5.14c0-.79.64-1.44,1.44-1.44Zm9.25,7.19c.34,0,.62-.28.62-.62v-5.14c0-.34-.28-.62-.62-.62h-9.25c-.34,0-.62.28-.62.62v5.14c0,.34.28.62.62.62h9.25Z"/>
          <rect class="cls-5" x="198.57" y="77" width="4.11" height=".81"/>
          <rect class="cls-5" x="203.19" y="78.54" width="1.03" height=".81"/>
          <rect class="cls-5" x="201.14" y="78.54" width="1.03" height=".81"/>
          <rect class="cls-5" x="199.09" y="78.54" width="1.03" height=".81"/>
          <rect class="cls-5" x="197.03" y="78.54" width="1.03" height=".81"/>
          <rect class="cls-5" x="203.19" y="80.09" width="1.03" height=".81"/>
          <rect class="cls-5" x="201.14" y="80.09" width="1.03" height=".81"/>
          <rect class="cls-5" x="199.09" y="80.09" width="1.03" height=".81"/>
          <rect class="cls-5" x="197.03" y="80.09" width="1.03" height=".81"/>
          <polygon class="cls-5" points="187.87 79.44 194.06 79.44 194.06 80.25 191.37 80.25 191.37 83.13 190.56 83.13 190.56 80.25 187.87 80.25 187.87 79.44"/>
          <path class="cls-5" d="m190.97,74.82c1.71,0,3.1,1.39,3.1,3.1v2.31c0,1.71-1.39,3.1-3.1,3.1s-3.1-1.39-3.1-3.1v-2.31c0-1.71,1.39-3.1,3.1-3.1Zm0,7.69c1.26,0,2.28-1.02,2.28-2.28v-2.31c0-1.26-1.02-2.28-2.28-2.28s-2.28,1.02-2.28,2.28v2.31c0,1.26,1.02,2.28,2.28,2.28Z"/>
        </g>
        <g>
          <path class="cls-5" d="m192.47,39.02h9.62c.22,0,.41.18.41.41v5.34c0,.22-.18.41-.41.41h-9.62c-.22,0-.41-.18-.41-.41v-5.34c0-.22.18-.41.41-.41Zm9.21.81h-8.81v4.53h8.81v-4.53Z"/>
          <path class="cls-5" d="m194.26,36.67h6.04c.22,0,.41.18.41.41s-.18.41-.41.41h-6.04c-.22,0-.41-.18-.41-.41s.18-.41.41-.41Z"/>
          <rect class="cls-5" x="196.99" y="37.08" width=".81" height="2.35"/>
        </g>
        <g>
          <path class="cls-5" d="m211.14,57.61h1.31v5.08h1.68v1.09h-4.66v-1.09h1.68v-5.08Z"/>
          <path class="cls-5" d="m207.72,62.42c-.63,0-1.12-.14-1.46-.41s-.51-.69-.51-1.26v-3.15h.9l.25.64h.03c.13-.17.27-.31.41-.42.14-.11.3-.19.48-.24.18-.05.4-.07.67-.07s.53.05.75.16c.22.11.4.27.52.49.13.22.19.5.19.84,0,.5-.18.87-.53,1.11-.35.24-.88.37-1.58.39l-.82.03v.21c0,.25.06.43.19.54.13.12.31.17.54.17s.46-.03.67-.1c.22-.07.44-.15.66-.25l.42.87c-.25.13-.53.24-.84.31-.31.07-.63.11-.96.11Zm-.18-2.65c.41-.01.7-.09.86-.22.16-.14.24-.32.24-.54,0-.2-.06-.34-.17-.42s-.27-.12-.45-.12c-.28,0-.51.08-.7.25-.19.16-.28.4-.28.69v.39l.5-.02Z"/>
          <path class="cls-5" d="m202.14,62.41c-.06,0-.14,0-.22,0s-.16-.01-.21-.03l.1-1.21s.1.02.18.03.15.01.2.01c.17,0,.33-.02.48-.07.16-.04.3-.11.42-.2s.22-.21.29-.37c.07-.15.11-.34.11-.57v-2.4h1.29v4.72h-.98l-.19-.8h-.06c-.09.16-.21.31-.35.44s-.3.24-.48.32c-.18.08-.38.12-.58.12Z"/>
          <path class="cls-5" d="m199.76,62.41c-.29,0-.55-.06-.78-.17-.23-.12-.43-.29-.59-.52h-.03l-.1.6h-1.09v-4.73c0-.45.09-.83.26-1.13.18-.31.44-.54.79-.7.35-.16.79-.24,1.31-.24.33,0,.64.02.93.06.28.04.56.11.83.22v1.03c-.29-.12-.59-.21-.89-.27-.31-.06-.62-.09-.95-.09s-.58.09-.75.27c-.16.18-.25.45-.25.8v.1c0,.1,0,.2-.01.3,0,.1-.02.2-.02.28h.03c.16-.25.35-.43.58-.54s.48-.16.76-.16c.56,0,1,.21,1.31.64.31.43.47,1.03.47,1.79s-.16,1.37-.48,1.81c-.32.43-.77.65-1.33.65Zm-.41-1.05c.2,0,.37-.05.51-.16.14-.11.24-.27.3-.48.07-.21.1-.47.1-.79,0-.47-.08-.83-.22-1.06-.15-.23-.38-.35-.7-.35-.17,0-.31.02-.43.06-.12.04-.22.12-.3.22s-.14.23-.18.39-.06.36-.06.59v.16c0,.34.04.61.1.82.07.21.18.36.32.45.14.1.33.14.56.14Z"/>
          <path class="cls-5" d="m194.22,62.41c-.44,0-.81-.08-1.13-.25-.31-.17-.56-.41-.73-.73-.17-.32-.26-.71-.26-1.17v-.62h3.04c-.01-.36-.12-.65-.32-.86-.2-.21-.49-.31-.85-.31-.31,0-.58.03-.83.09-.25.06-.5.15-.77.28v-.99c.23-.12.47-.2.73-.26s.57-.08.93-.08c.47,0,.89.09,1.25.26.36.18.65.44.86.8.21.36.31.81.31,1.35s-.09,1.01-.28,1.38c-.19.37-.45.64-.78.83-.33.19-.72.28-1.17.28Zm0-.92c.25,0,.45-.08.62-.24.16-.16.26-.41.29-.75h-1.81c0,.19.03.36.1.51s.17.27.3.36c.13.09.3.13.5.13Z"/>
          <path class="cls-5" d="m189.41,58.55c-.14,0-.28.01-.41.04s-.27.06-.4.1v-.96c.14-.06.31-.11.51-.15.2-.04.43-.06.67-.06.28,0,.53.05.76.14.22.09.4.25.53.48.13.23.19.54.19.95v2.27h.61v.54l-.71.43-.37.99h-.82v-1h-1.32v-.97h1.32v-2.27c0-.18-.05-.31-.16-.4-.1-.09-.24-.13-.41-.13Z"/>
        </g>
        <g>
          <path class="cls-5" d="m265.97,57.61h1.31v2.66h2.45v-2.66h1.3v6.17h-1.3v-2.42h-2.45v2.42h-1.31v-6.17Z"/>
          <path class="cls-5" d="m260.57,59.97c0-.39.05-.74.16-1.05.11-.31.26-.56.46-.77s.44-.37.72-.48c.28-.11.6-.16.96-.16.33,0,.63.05.91.16s.52.27.72.48.36.47.47.77c.11.3.17.65.17,1.05,0,.52-.09.97-.28,1.33-.18.36-.45.64-.79.83-.35.19-.75.28-1.23.28-.44,0-.84-.1-1.18-.28-.34-.19-.61-.47-.8-.83-.2-.36-.29-.8-.29-1.33Zm3.26,0c0-.31-.03-.57-.1-.78-.07-.21-.17-.37-.32-.48-.14-.11-.33-.16-.56-.16s-.42.05-.56.16c-.14.11-.24.27-.31.48s-.1.47-.1.78.03.57.1.78c.07.21.17.36.32.47.14.1.33.15.56.15.34,0,.59-.12.74-.35s.23-.58.23-1.05Z"/>
          <path class="cls-5" d="m256.56,59.01c0-.32.08-.59.22-.81.15-.22.37-.39.67-.51s.67-.17,1.11-.17c.33,0,.61.02.85.06.24.04.47.11.71.21v1.06c-.25-.12-.53-.21-.82-.29-.29-.07-.55-.11-.78-.11-.25,0-.43.04-.54.11-.11.08-.16.17-.16.29,0,.08.02.15.06.22.04.06.14.13.28.22.14.08.37.18.67.31.29.13.54.25.73.38s.33.27.42.45c.09.18.14.4.14.66,0,.44-.17.77-.51.99-.34.22-.79.33-1.36.33-.29,0-.57-.03-.84-.09-.26-.06-.54-.15-.82-.28l.39-.92c.23.1.45.18.66.25.21.07.42.1.63.1.19,0,.33-.03.43-.08.09-.05.14-.13.14-.23,0-.07-.02-.14-.07-.2s-.14-.12-.29-.19c-.14-.07-.35-.16-.63-.28-.27-.11-.5-.22-.7-.34-.2-.12-.35-.27-.45-.44-.11-.18-.16-.41-.16-.69Z"/>
          <path class="cls-5" d="m253.92,58.55c-.14,0-.28.01-.41.04s-.27.06-.4.1v-.96c.14-.06.31-.11.51-.15.2-.04.43-.06.67-.06.28,0,.53.05.76.14.22.09.4.25.53.48.13.23.19.54.19.95v2.27h.61v.54l-.71.43-.37.99h-.82v-1h-1.32v-.97h1.32v-2.27c0-.18-.05-.31-.16-.4-.1-.09-.24-.13-.41-.13Z"/>
        </g>
        <g>
          <g>
            <polyline class="cls-5" points="262.11 69.83 262.11 72.18 255.9 78.39 254.24 80.05 251.89 80.05 245.56 80.05 245.56 78.39 253.55 78.39 260.45 71.49 260.45 69.6 262.11 69.6"/>
            <path class="cls-5" d="m260.45,71.22h1.66s0-1.79,0-1.79c.75-.32,1.27-1.06,1.27-1.93,0-1.16-.94-2.1-2.1-2.1s-2.1.94-2.1,2.1c0,.86.52,1.6,1.27,1.93v1.79Zm.83-2.69c-.57,0-1.03-.46-1.03-1.03,0-.57.46-1.03,1.03-1.03s1.03.46,1.03,1.03c0,.57-.46,1.03-1.03,1.03Z"/>
            <rect class="cls-5" x="213.11" y="78.39" width="33.27" height="1.66"/>
          </g>
          <path class="cls-5" d="m213.4,81.72c-.18.1-.4.1-.57,0l-3.44-1.99c-.34-.2-.34-.8,0-1l3.44-1.99c.18-.1.4-.1.57,0,.18.1.29.29.29.5v1.07c0,.1-.03.21-.08.3l-.37.62.37.62c.05.09.08.19.08.3v1.07c0,.2-.11.4-.29.5Zm-.37-.5h0s0,0,0,0Z"/>
        </g>
        <g>
          <g>
            <polyline class="cls-5" points="261.12 50 261.12 47.65 254.91 41.44 253.25 39.78 250.9 39.78 244.57 39.78 244.57 41.44 252.56 41.44 259.45 48.34 259.45 52.47 261.12 52.47"/>
            <path class="cls-5" d="m211.75,39.78c-.32-.75-1.06-1.27-1.93-1.27-1.16,0-2.1.94-2.1,2.1,0,1.16.94,2.1,2.1,2.1.86,0,1.6-.52,1.93-1.27h4.03v-1.66h-4.03Zm-1.93,1.86c-.57,0-1.03-.46-1.03-1.03,0-.57.46-1.03,1.03-1.03s1.03.46,1.03,1.03c0,.57-.46,1.03-1.03,1.03Z"/>
            <rect class="cls-5" x="212.11" y="39.78" width="33.27" height="1.66"/>
          </g>
          <path class="cls-5" d="m262.78,50.11c.1.18.1.4,0,.57l-1.99,3.44c-.2.34-.8.34-1,0l-1.99-3.44c-.1-.18-.1-.4,0-.57.1-.18.29-.29.5-.29h1.07c.1,0,.21.03.3.08l.62.37.62-.37c.09-.05.19-.08.3-.08h1.07c.2,0,.4.11.5.29Zm-.5.37h0,0Z"/>
        </g>
        <g>
          <path class="cls-5" d="m251.8,85.96h.6l1.42,1.91.41-.36v-1.55h.51v4.01h-.51v-1.98c-.11.13-.23.26-.34.38-.12.13-.23.25-.35.38l-1.08,1.21h-.59l1.59-1.75-1.65-2.26Z"/>
          <path class="cls-5" d="m250.27,89.02c-.26,0-.48-.06-.67-.17-.18-.11-.33-.27-.43-.47s-.15-.44-.15-.72v-.3h2.06c0-.34-.09-.6-.26-.78s-.4-.27-.7-.27c-.19,0-.36.02-.51.05-.15.04-.3.09-.46.15v-.43c.15-.07.3-.12.45-.15s.33-.05.53-.05c.28,0,.54.06.75.17.22.12.39.29.51.52s.18.51.18.84-.06.61-.17.85c-.11.24-.27.42-.47.54s-.43.19-.7.19Zm0-.4c.24,0,.42-.08.56-.23.14-.15.22-.36.24-.63h-1.53c0,.17.03.32.08.45.05.13.13.23.24.3.11.07.24.11.41.11Z"/>
          <path class="cls-5" d="m248.97,88.96h-.53l-.65-1.71c-.04-.1-.07-.2-.1-.29-.03-.09-.06-.18-.09-.27-.03-.09-.05-.17-.06-.26h-.02c-.02.09-.06.22-.11.37-.05.15-.1.3-.15.46l-.61,1.71h-.53l1.3-3.42c.07-.19.15-.35.25-.49s.21-.25.35-.33c.14-.08.3-.12.5-.12.09,0,.17,0,.24.01.07,0,.13.02.17.03v.39s-.09-.02-.15-.02-.12-.01-.18-.01c-.12,0-.22.02-.3.06-.08.04-.16.1-.22.19-.06.08-.11.17-.15.28l-.16.4,1.21,3.02Z"/>
          <path class="cls-5" d="m245.25,89.18c0-.13,0-.25,0-.36s.01-.2.02-.26h-.03c-.09.13-.2.23-.35.32-.15.09-.34.13-.58.13-.37,0-.67-.13-.9-.39-.23-.26-.34-.65-.34-1.16,0-.34.05-.63.15-.86.1-.23.25-.41.44-.52.19-.12.4-.17.65-.17s.43.04.58.13c.15.09.27.19.35.31h.04l.1-.38h.35v4.26h-.49v-1.04Zm-.85-.58c.21,0,.38-.04.51-.12.12-.08.21-.2.26-.37.05-.17.08-.38.08-.64v-.02c0-.37-.06-.65-.18-.85-.12-.2-.35-.29-.68-.29-.27,0-.47.1-.6.3s-.2.48-.2.86.07.66.2.85c.13.19.34.29.61.29Z"/>
          <path class="cls-5" d="m239.79,87.46c0-.25.03-.47.1-.66.07-.19.16-.36.28-.49.12-.13.27-.24.44-.31.17-.07.37-.1.58-.1.2,0,.38.03.55.1.17.07.31.17.44.31.12.13.22.3.29.49.07.19.1.41.1.66,0,.33-.06.61-.17.84-.11.23-.27.41-.48.53s-.46.18-.75.18c-.27,0-.51-.06-.72-.18s-.37-.3-.49-.53-.18-.51-.18-.84Zm2.27,0c0-.24-.03-.44-.09-.61-.06-.17-.16-.31-.29-.4-.13-.09-.3-.14-.5-.14s-.37.05-.5.14c-.13.09-.23.23-.29.4-.06.17-.09.38-.09.61s.03.44.1.61c.06.17.16.3.29.39.13.09.3.14.5.14.31,0,.53-.1.67-.3.14-.2.21-.48.21-.84Z"/>
          <path class="cls-5" d="m237.99,89.01c-.37,0-.64-.08-.81-.24s-.26-.42-.26-.77v-2.05h.36l.1.43h.02c.09-.11.17-.2.27-.27.09-.07.2-.13.31-.16s.26-.05.43-.05c.18,0,.34.03.49.1s.26.16.34.29c.08.13.12.3.12.5,0,.3-.12.53-.35.69-.24.16-.6.25-1.09.27l-.51.02v.18c0,.25.05.42.16.52.11.1.26.15.46.15.16,0,.31-.02.45-.07.14-.05.28-.1.4-.16l.15.37c-.13.07-.29.13-.47.18s-.37.08-.56.08Zm-.15-1.6c.37-.02.63-.07.78-.18.14-.1.22-.25.22-.44,0-.17-.05-.29-.15-.37-.1-.08-.24-.12-.4-.12-.25,0-.47.07-.63.21-.17.14-.25.36-.25.65v.27l.44-.02Z"/>
          <path class="cls-5" d="m234.69,89.02c-.06,0-.12,0-.18,0-.07,0-.12-.01-.17-.03l.06-.45s.1.02.16.03c.06,0,.11.01.17.01.12,0,.23-.02.33-.07.1-.05.2-.12.28-.2.08-.09.15-.19.19-.32.05-.12.07-.26.07-.42v-1.6h.49v3.01h-.4l-.06-.55h-.02c-.06.11-.14.21-.23.31-.09.09-.19.16-.31.22-.12.05-.24.08-.38.08Z"/>
          <path class="cls-5" d="m232.93,85.9c.37,0,.67.13.9.39.22.26.34.65.34,1.16s-.11.91-.34,1.17c-.23.26-.53.4-.9.4-.16,0-.29-.02-.41-.06-.12-.04-.22-.09-.3-.16-.09-.07-.16-.14-.22-.22h-.03s.01.12.02.22.01.17.01.23v1.2h-.49v-4.26h.4l.07.4h.02c.06-.09.13-.16.22-.23s.19-.12.31-.17c.12-.04.26-.06.41-.06Zm-.08.41c-.32,0-.54.09-.67.26-.13.17-.19.44-.19.79v.09c0,.37.06.66.19.86.12.2.35.3.68.3.27,0,.46-.11.6-.32.13-.21.2-.49.2-.85s-.07-.64-.2-.84c-.13-.2-.33-.3-.6-.3Z"/>
          <path class="cls-5" d="m228.08,90.02c-.2,0-.37-.04-.52-.1s-.26-.17-.33-.29c-.08-.13-.12-.28-.12-.46,0-.24.08-.44.23-.6.15-.17.34-.31.58-.45l-1.08-1.04c-.1.12-.18.25-.24.4-.06.15-.11.31-.15.49h-.5c.06-.24.13-.46.22-.67.09-.21.21-.39.35-.54l-.82-.8h.67l.49.47c.12-.11.24-.2.38-.28.13-.08.28-.14.45-.19s.35-.07.56-.07c.26,0,.48.04.67.13s.33.21.44.37c.1.17.15.36.15.6,0,.19-.03.36-.1.49s-.17.26-.3.37-.28.21-.46.31c.08.09.16.18.23.28.08.1.14.2.19.32s.07.24.07.37c0,.18-.04.34-.12.47-.08.13-.2.23-.36.3-.16.07-.34.1-.55.1Zm.25-2.15c.13-.08.25-.16.34-.24.1-.08.17-.17.22-.27s.08-.21.08-.35c0-.21-.07-.37-.21-.49-.14-.12-.32-.19-.56-.19s-.45.04-.62.12c-.17.08-.32.17-.43.28l1.17,1.13Zm-.23,1.75c.16,0,.28-.04.38-.12s.15-.2.15-.34c0-.13-.04-.26-.11-.37s-.17-.24-.31-.38c-.22.13-.38.25-.47.36-.1.11-.14.25-.14.4,0,.13.04.24.13.33.09.09.21.13.36.13Z"/>
          <path class="cls-5" d="m222.14,85.96l1.32,3.51h.02c0-.07-.01-.17-.02-.29,0-.12-.01-.24-.01-.38,0-.14,0-.28,0-.42v-2.43h.47v4.01h-.75l-1.23-3.28h-.02l-1.26,3.28h-.74v-4.01h.5v2.46c0,.13,0,.26,0,.39,0,.13,0,.25-.02.36s-.01.21-.02.29h.02l1.34-3.51h.42Z"/>
          <path class="cls-5" d="m216.38,87.46c0-.25.03-.47.1-.66.07-.19.16-.36.28-.49.12-.13.27-.24.44-.31.17-.07.37-.1.58-.1.2,0,.38.03.55.1.17.07.31.17.44.31.12.13.22.3.29.49.07.19.1.41.1.66,0,.33-.06.61-.17.84-.11.23-.27.41-.48.53s-.46.18-.75.18c-.27,0-.51-.06-.72-.18s-.37-.3-.49-.53-.18-.51-.18-.84Zm2.27,0c0-.24-.03-.44-.09-.61-.06-.17-.16-.31-.29-.4-.13-.09-.3-.14-.5-.14s-.37.05-.5.14c-.13.09-.23.23-.29.4-.06.17-.09.38-.09.61s.03.44.1.61c.06.17.16.3.29.39.13.09.3.14.5.14.31,0,.53-.1.67-.3.14-.2.21-.48.21-.84Z"/>
          <path class="cls-5" d="m213.2,88.96v-3.01h.4l.07.4h.02c.06-.11.15-.19.25-.26s.21-.12.33-.15c.12-.03.24-.05.38-.05.24,0,.44.04.6.12s.29.2.37.36.12.37.12.62v1.97h-.5v-1.94c0-.24-.05-.42-.16-.54-.11-.12-.28-.18-.51-.18s-.4.04-.53.13c-.13.08-.22.21-.27.37-.05.16-.08.36-.08.59v1.56h-.49Z"/>
          <path class="cls-5" d="m210.4,86.79c0-.2.05-.36.15-.49.1-.13.24-.23.42-.3s.39-.1.64-.1c.21,0,.39.02.54.05.15.03.29.08.4.14v.45c-.12-.06-.26-.11-.44-.17-.17-.05-.34-.08-.52-.08-.25,0-.43.04-.54.12-.11.08-.17.19-.17.32,0,.07.02.14.06.2s.12.12.22.18c.11.06.26.13.46.2.19.08.36.15.5.22.14.07.24.16.32.27.08.1.11.24.11.4,0,.26-.1.45-.31.59-.21.14-.48.21-.82.21-.18,0-.35-.02-.51-.05-.16-.04-.31-.09-.45-.15l.17-.39c.13.05.26.1.4.13.14.04.28.06.43.06.2,0,.36-.03.46-.1.11-.06.16-.15.16-.27,0-.08-.02-.15-.07-.21-.05-.06-.13-.11-.24-.17-.11-.05-.27-.12-.46-.19-.19-.07-.35-.14-.49-.22-.13-.07-.24-.17-.31-.27-.07-.11-.11-.24-.11-.4Z"/>
          <path class="cls-5" d="m208.62,89.02c-.26,0-.48-.06-.67-.17-.18-.11-.33-.27-.43-.47s-.15-.44-.15-.72v-.3h2.06c0-.34-.09-.6-.26-.78s-.4-.27-.7-.27c-.19,0-.36.02-.51.05-.15.04-.3.09-.46.15v-.43c.15-.07.3-.12.45-.15s.33-.05.53-.05c.28,0,.54.06.75.17.22.12.39.29.51.52s.18.51.18.84-.06.61-.17.85c-.11.24-.27.42-.47.54s-.43.19-.7.19Zm0-.4c.24,0,.42-.08.56-.23.14-.15.22-.36.24-.63h-1.53c0,.17.03.32.08.45.05.13.13.23.24.3.11.07.24.11.41.11Z"/>
        </g>
        <g>
          <path class="cls-5" d="m235.3,35.03l1.43-4.01h.51l1.43,4.01h-.53l-.9-2.57c-.04-.11-.08-.21-.11-.31-.03-.1-.06-.2-.08-.29-.02-.09-.05-.18-.06-.27-.02.09-.04.18-.06.28-.02.09-.05.19-.08.29s-.07.21-.1.32l-.9,2.56h-.53Z"/>
          <path class="cls-5" d="m234.57,35.16c-.08,0-.14-.03-.2-.08-.06-.05-.09-.13-.09-.24s.03-.18.09-.24c.06-.05.12-.08.2-.08.08,0,.15.03.21.08.06.05.08.13.08.24s-.03.19-.08.24c-.06.05-.13.08-.21.08Zm-.24-1.13v-3.01h.49v3.01h-.49Z"/>
          <path class="cls-5" d="m232.31,30.97c.37,0,.67.13.9.39.22.26.34.65.34,1.16s-.11.91-.34,1.17c-.23.26-.53.4-.9.4-.16,0-.29-.02-.41-.06-.12-.04-.22-.09-.3-.16-.09-.07-.16-.14-.22-.22h-.03s.01.12.02.22.01.17.01.23v1.2h-.49v-4.26h.4l.07.4h.02c.06-.09.13-.16.22-.23s.19-.12.31-.17c.12-.04.26-.06.41-.06Zm-.08.41c-.32,0-.54.09-.67.26-.13.17-.19.44-.19.79v.09c0,.37.06.66.19.86.12.2.35.3.68.3.27,0,.46-.11.6-.32.13-.21.2-.49.2-.85s-.07-.64-.2-.84c-.13-.2-.33-.3-.6-.3Z"/>
          <path class="cls-5" d="m228.76,34.09c-.26,0-.48-.06-.67-.17-.18-.11-.33-.27-.43-.47s-.15-.44-.15-.72v-.3h2.06c0-.34-.09-.6-.26-.78s-.4-.27-.7-.27c-.19,0-.36.02-.51.05-.15.04-.3.09-.46.15v-.43c.15-.07.3-.12.45-.15s.33-.05.53-.05c.28,0,.54.06.75.17.22.12.39.29.51.52s.18.51.18.84-.06.61-.17.85c-.11.24-.27.42-.47.54s-.43.19-.7.19Zm0-.4c.24,0,.42-.08.56-.23.14-.15.22-.36.24-.63h-1.53c0,.17.03.32.08.45.05.13.13.23.24.3.11.07.24.11.41.11Z"/>
          <path class="cls-5" d="m224.14,32.53c0-.25.03-.47.1-.66.07-.19.16-.36.28-.49.12-.13.27-.24.44-.31.17-.07.37-.1.58-.1.2,0,.38.03.55.1.17.07.31.17.44.31.12.13.22.3.29.49.07.19.1.41.1.66,0,.33-.06.61-.17.84-.11.23-.27.41-.48.53s-.46.18-.75.18c-.27,0-.51-.06-.72-.18s-.37-.3-.49-.53-.18-.51-.18-.84Zm2.27,0c0-.24-.03-.44-.09-.61-.06-.17-.16-.31-.29-.4-.13-.09-.3-.14-.5-.14s-.37.05-.5.14c-.13.09-.23.23-.29.4-.06.17-.09.38-.09.61s.03.44.1.61c.06.17.16.3.29.39.13.09.3.14.5.14.31,0,.53-.1.67-.3.14-.2.21-.48.21-.84Z"/>
        </g>
      </g>
      <g>
        <path class="cls-3" d="m427.5,35c1.38,0,2.5,1.12,2.5,2.5v37.5h-60v-37.5c0-1.38,1.12-2.5,2.5-2.5h55Z"/>
        <g>
          <path class="cls-2" d="m427.5,35c1.38,0,2.5,1.12,2.5,2.5v37.5h-60v-37.5c0-1.38,1.12-2.5,2.5-2.5h55Zm-55-5c-4.14,0-7.5,3.36-7.5,7.5v42.5h70v-42.5c0-4.14-3.36-7.5-7.5-7.5h-55Zm-12.5,52.5h80c0,4.14-3.36,7.5-7.5,7.5h-65c-4.14,0-7.5-3.36-7.5-7.5"/>
          <g class="cls-11">
            <path class="cls-6" d="m402.3,65.73h-5.08v-19.77h-6.52v-4.23h18.11v4.23h-6.52v19.77Z"/>
          </g>
        </g>
      </g>
    </g>
  </g>
</svg>