<svg xmlns="http://www.w3.org/2000/svg" xmlns:xlink="http://www.w3.org/1999/xlink" viewBox="0 0 725.67 725.67"><defs><style>.cls-1{fill:none;}.cls-2{clip-path:url(#clip-path);}.cls-3{fill:url(#radial-gradient);}.cls-4{fill:#fff;}.cls-5{fill:#f6ac34;}.cls-6,.cls-7{fill:#c23419;}.cls-10,.cls-6{fill-rule:evenodd;}.cls-8{fill:#e55709;}.cls-9{fill:#f9c27d;}.cls-10{fill:#2d2b2a;}</style><clipPath id="clip-path"><rect class="cls-1" width="725.67" height="725.66"/></clipPath><radialGradient id="radial-gradient" cx="-2682.7" cy="-275.91" r="0.88" gradientTransform="matrix(-389.2, 423.54, 423.54, 389.2, -927220.28, 1243645.47)" gradientUnits="userSpaceOnUse"><stop offset="0" stop-color="#c23419"/><stop offset="1" stop-color="#2d2b2a"/></radialGradient></defs><g id="Layer_2" data-name="Layer 2"><g id="Layer_7" data-name="Layer 7"><g class="cls-2"><path class="cls-3" d="M0,590.73q0,134.21,134.2,134.2H590.73q134.21,0,134.2-134.2V134.2Q724.93,0,590.73,0H134.2Q0,0,0,134.2Z"/><path class="cls-4" d="M321.47,256.9s-2.06,19,5.19,36.93,19.65,23.51,19.65,23.51,9.68-7.62,1-18-9-19.68-9-19.68A51.33,51.33,0,0,1,355,284.85l9.67-15.53C352.88,257.57,321.47,256.9,321.47,256.9Z"/><path class="cls-5" d="M322.2,277a74.5,74.5,0,0,0,4.46,16.81c7.25,18,19.65,23.51,19.65,23.51s9.68-7.62,1-18-9-19.68-9-19.68S330.29,278,322.2,277Z"/><path class="cls-4" d="M409,620l21.33-13.1-96.7-22.73v70Z"/><path class="cls-6" d="M330.67,603.6l-2.18-5.09s37.32,8.48,39.75,9.21,1.21,4.12-2.91,3.39S330.67,603.6,330.67,603.6Zm-8.48,9.45L320,608s37.32,8.48,39.74,9.21,1.22,4.12-2.9,3.39S322.19,613.05,322.19,613.05Zm-13.08,9-2.19-5.08s37.32,8.48,39.75,9.2,1.21,4.12-2.91,3.4S309.11,622,309.11,622Z"/><path class="cls-7" d="M284.3,671.23c2.32.53,4.59.94,6.8,1.25.16,0,11.52,3.81,20.67,2.85s118.51-45.77,118.51-45.77V606.94l-93.55,38.4V498.76c0-1.06,0-2.09-.11-3.09-1.78-26.13-26.29-32.74-43.26-37.31l-3.64-1-1.17,42.84-4.7,170.92Z"/><path class="cls-4" d="M605.38,628.57a11.76,11.76,0,0,0-6.65-10.15c-4.53-2.12-26.68-8.89-39.68-9.5s-42.34,16.94-49,27.52-4.23,23,2.42,28.73,18.44,9.07,32,2.72,60.85-25.09,60.85-25.09Z"/><path class="cls-5" d="M499.34,546a92.68,92.68,0,0,0-10.57.88c-13.95,3.07-29.69,9.43-34.35,26.49h53.73V546Z"/><path class="cls-5" d="M419.77,451.21s-18.79,8.88-24,33.94,2.09,43.33,2.09,43.33-12.53-2.61-26.11,7.31S358.69,552,358.69,552h71s-6.78-36,11.49-64.21Z"/><path class="cls-8" d="M426.34,462.42c-18.59,13.11-24.07,60.87.68,89.55h2.67s-6.78-36,11.49-64.21Z"/><path class="cls-5" d="M400.46,383.87c-51.17-2.09-120.6,11.48-141,23S244.36,435,264.72,434s147.75-.52,147.75-.52C406.2,417.28,400.46,383.87,400.46,383.87Z"/><path class="cls-4" d="M565.27,262.29c-35.21.32-49.66,12.17-52.63,19.41s6.23,17.48,11.86,11.85c7.24-7.24,24.72-9.55,24.72-9.55s0,16.49-17.48,24.06l-2.63,14.13C572.89,315.28,565.27,262.29,565.27,262.29Z"/><path class="cls-5" d="M565.1,281.76c-5.06.35-11.5,1-15.88,2.24,0,0,0,16.49-17.48,24.06l-2.63,14.13C555.17,318.08,563,297.63,565.1,281.76Z"/><path class="cls-5" d="M655.72,254.89C639.35,145.75,536.58,47.53,388.33,47.53s-255.69,99.78-290,192.54S82,386.63,121.73,399.1s75.62-20.27,76.4-43.65-4.68-67,24.16-116.16,92-105.23,201.12-105.23S610.5,215.13,615.18,285.29,585.32,377,585.32,377l16.61,34.78S672.09,364,655.72,254.89Z"/><path class="cls-7" d="M638,314.14c13.6-143-136.86-231.14-266.8-210.49C253.47,122.36,172.36,201.1,160.82,317c-3.13,31.5-7.62,49.42-36.75,51.66-19.87,1.53-33-7.06-41.22-16.21,5.61,25,19.71,40.59,38.88,46.61,39.76,12.47,75.62-20.27,76.4-43.65s-4.68-67,24.16-116.16,92-105.23,201.12-105.23S610.5,215.13,615.18,285.29,585.32,377,585.32,377l9.49,19.87C622.8,372.15,635.21,343.38,638,314.14Z"/><path class="cls-7" d="M421.86,405.27c8.88,44.9,42.81,86.66,42.81,86.66s4,41,26.3,13.7,41-47.11,52.54-54.94S568,435,568,435l-19.83,31.32s18.79-6.26,32.89-4.17l-1.05,18.27s-42.81-4.17-63.69,17.75S496,573.38,496,573.38h39.17c18.78,0,66.29-24,82.47-64.22s7.83-97.62-26.1-133.65-64.22-41.76-64.22-41.76Z"/><path class="cls-8" d="M464.67,491.93s4,41,26.3,13.7,41-47.11,52.54-54.94S568,435,568,435l-19.83,31.32s18.79-6.26,32.89-4.17l-1.05,18.27a113.74,113.74,0,0,0-25.63.52c-14.9,2.34-29.94,8.71-38.06,17.23-14.84,15.59-16.87,31.95-18.32,47.85l37.53-1.67c17.73-.78,53.88-14.33,62.23-74.89s-33.93-102.33-33.93-102.33S511.66,423,487.65,432.94c-17.43,7.2-46.95-5.12-61.83-12.42C438.07,459.19,464.67,491.93,464.67,491.93Z"/><path class="cls-4" d="M139.23,460.08v147.8c0,26.74,16.27,33.42,32.09,37s99.87,23.5,112.53,26.21,30.73-.45,30.73-22.6V491.71c0-19-9-30.27-24.86-34.34S186.23,431.16,170,430.25,139.23,438.83,139.23,460.08Z"/><path class="cls-9" d="M512.48,665.17c6.65,5.75,18.44,9.07,32,2.72,1.21-.56,2.7-1.23,4.39-2a24.27,24.27,0,0,0,2.57-4.68L550,650.76c-9.13,6.55-26,6-43.58-4.93C505.15,653.61,507.74,661.08,512.48,665.17Z"/><path class="cls-7" d="M605.38,628.57a11.83,11.83,0,0,0-4-8.4c-9.42,3.37-34.71,12.94-44.47,21.72-7.5,6.75-11.75,18.62-13.89,26.66.5-.2,1-.42,1.49-.66,13.61-6.35,60.85-25.09,60.85-25.09Z"/><path class="cls-4" d="M278.81,413.1C282,410.49,321.62,399,365,393.79c0,0,9.4-5,13-9.92-47.24,1.69-101,13.1-118.46,23C239.14,418.32,244.36,435,264.72,434c1.13-.05,2.61-.11,4.36-.15C277.28,425.66,276.12,415.35,278.81,413.1Z"/><path class="cls-7" d="M400.46,383.87A356.82,356.82,0,0,0,349.24,386c15.24,16,27.79,35.55,34.81,47.43l28.42.08C406.2,417.28,400.46,383.87,400.46,383.87Z"/><path class="cls-8" d="M505.4,413.1s-16.19,22.45-38.12,60.56-25.06,52.73-21.92,58.48,20.64,13,40.5-18.49c16.69-26.46,61.55-94.49,61.55-94.49C543.24,418.12,505.4,413.1,505.4,413.1Z"/><path class="cls-5" d="M505.4,413.1s-16.19,22.45-38.12,60.56-25.06,52.73-21.92,58.48c2.11,3.88,10.79,8.45,22.33,1.29C480.35,492.7,515,442.81,540.37,418,528.22,416.13,505.4,413.1,505.4,413.1Z"/><path class="cls-4" d="M505.4,413.1s-16.19,22.45-38.12,60.56-25.06,52.73-21.92,58.48a10.65,10.65,0,0,0,6.69,4.57c7.53-23.22,36.1-76.69,65.39-122Z"/><path class="cls-5" d="M461.67,238.79c7.37-11.88,28.67-24.16,28.67-24.16s-25.39-6.14-67.16,10.65-66.75,44.22-77,72.07S335.54,349,361.34,381.3s78.22,36,123.27,23.34S550.94,358,540.7,316.59s-46.25-56.95-46.25-56.95,23.34-4.06,27.84-4.06C495.26,235.92,461.67,238.79,461.67,238.79Z"/><path class="cls-4" d="M502.83,367.29c14.47-33.77.11-71-33.21-79.75s-54.93,21.87-54.93,21.87-14.8-22.8-36.39-23.68-44.2,33.54-32,72a117.85,117.85,0,0,0,15,23.57c17.7,22.2,47.94,30.9,79.73,30.07C466.12,406.22,492.42,391.58,502.83,367.29Z"/><path class="cls-10" d="M448.57,330.36c9.3,0,16.84,7.81,16.84,17.44s-7.54,17.45-16.84,17.45-16.85-7.81-16.85-17.45S439.26,330.36,448.57,330.36Zm-69.48-.15c9.3,0,16.84,7.82,16.84,17.45s-7.54,17.44-16.84,17.44-16.85-7.81-16.85-17.44S369.78,330.21,379.09,330.21Zm28.35,31.22c7.16,0,13,5.22,13,11.66s-5.81,11.65-13,11.65-13-5.22-13-11.65S400.27,361.43,407.44,361.43Z"/><path class="cls-4" d="M380.05,273.45s40.34-41.66,97.43-50.24a144.91,144.91,0,0,1,12.86-8.58s-25.39-6.14-67.16,10.65c-26.7,10.73-46.54,25.81-60.06,42.57A82,82,0,0,1,380.05,273.45Z"/><path class="cls-8" d="M498.45,315.54c-9.65,9.65-7.9,23.24-21.05,40.78-13,17.28-36.56,40.09-103.07,37.41,28.06,20.64,71.85,21.74,110.28,10.91,45-12.69,66.33-46.69,56.09-88.05a84.09,84.09,0,0,0-10.22-24.27C524.28,296.19,506.36,307.63,498.45,315.54Z"/><path class="cls-9" d="M502.83,367.29c8.15-19,7.15-39.14-1.23-54.65-1.17,1-2.23,2-3.15,2.9-9.65,9.65-7.9,23.24-21.05,40.78-13,17.28-36.56,40.09-103.08,37.41,17.74,13,41.77,18.29,66.75,17.64C466.12,406.22,492.42,391.58,502.83,367.29Z"/><path class="cls-6" d="M227.59,509.22a36.34,36.34,0,0,1,22,11.37l-48.73,45.07a42.44,42.44,0,0,1-7.16-23.44C193.75,521.9,208.9,507.13,227.59,509.22Zm28.55,20.25a42.23,42.23,0,0,1,5.29,20.34c0,20.31-15.16,35.09-33.84,33a35.58,35.58,0,0,1-19.48-8.89Z"/></g><rect class="cls-1" width="725.67" height="725.67"/></g></g></svg>