<?xml version="1.0" encoding="utf-8"?>
<svg viewBox="0 0 418.089 418.089" xmlns="http://www.w3.org/2000/svg">
  <path id="XMLID_219_" d="M209.977,170.466h26.941c3.866,0,7-3.134,7-7v-26.939c0-3.866-3.134-7-7-7h-26.941c-3.866,0-7,3.134-7,7&#10;&#9;v26.939C202.977,167.333,206.111,170.466,209.977,170.466z M216.977,143.527h12.941v12.939h-12.941V143.527z M371.268,187.186&#10;&#9;h-26.94c-3.866,0-7,3.134-7,7v26.94c0,3.866,3.134,7,7,7h26.94c3.866,0,7-3.134,7-7v-26.94&#10;&#9;C378.268,190.32,375.134,187.186,371.268,187.186z M364.268,214.126h-12.94v-12.94h12.94V214.126z M401.224,96.089H16.865&#10;&#9;C7.565,96.089,0,103.655,0,112.955v192.18C0,314.434,7.565,322,16.865,322h384.359c9.299,0,16.865-7.565,16.865-16.865v-192.18&#10;&#9;C418.089,103.655,410.523,96.089,401.224,96.089z M404.089,305.134c0,1.553-1.312,2.865-2.865,2.865H16.865&#10;&#9;c-1.553,0-2.865-1.313-2.865-2.865v-192.18c0-1.553,1.312-2.865,2.865-2.865h384.359c1.553,0,2.865,1.313,2.865,2.865V305.134z&#10;&#9; M317.387,170.466h53.88c3.866,0,7-3.134,7-7v-26.939c0-3.866-3.134-7-7-7h-53.88c-3.866,0-7,3.134-7,7v26.939&#10;&#9;C310.387,167.333,313.521,170.466,317.387,170.466z M324.387,143.527h39.88v12.939h-39.88V143.527z M263.847,170.466h26.94&#10;&#9;c3.866,0,7-3.134,7-7v-26.939c0-3.866-3.134-7-7-7h-26.94c-3.866,0-7,3.134-7,7v26.939&#10;&#9;C256.847,167.333,259.98,170.466,263.847,170.466z M270.847,143.527h12.94v12.939h-12.94V143.527z M235.04,187.186&#10;&#9;c-3.866,0-7,3.134-7,7v26.94c0,3.866,3.134,7,7,7h26.94c3.866,0,7-3.134,7-7v-26.94c0-3.866-3.134-7-7-7H235.04z M254.98,214.126&#10;&#9;h-12.94v-12.94h12.94V214.126z M46.821,187.186c-3.866,0-7,3.134-7,7v26.94c0,3.866,3.134,7,7,7h53.88c3.866,0,7-3.134,7-7v-26.94&#10;&#9;c0-3.866-3.134-7-7-7H46.821z M93.701,214.126h-39.88v-12.94h39.88V214.126z M181.17,187.186c-3.866,0-7,3.134-7,7v26.94&#10;&#9;c0,3.866,3.134,7,7,7h26.941c3.866,0,7-3.134,7-7v-26.94c0-3.866-3.134-7-7-7H181.17z M201.111,214.126H188.17v-12.94h12.941&#10;&#9;V214.126z M315.849,244.844h-213.61c-3.866,0-7,3.134-7,7v26.94c0,3.866,3.134,7,7,7h213.61c3.866,0,7-3.134,7-7v-26.94&#10;&#9;C322.849,247.978,319.715,244.844,315.849,244.844z M308.849,271.785h-199.61v-12.94h199.61V271.785z M102.239,170.466h26.939&#10;&#9;c3.866,0,7-3.134,7-7v-26.939c0-3.866-3.134-7-7-7h-26.939c-3.866,0-7,3.134-7,7v26.939&#10;&#9;C95.239,167.333,98.373,170.466,102.239,170.466z M109.239,143.527h12.939v12.939h-12.939V143.527z M46.82,170.466h26.94&#10;&#9;c3.866,0,7-3.134,7-7v-26.939c0-3.866-3.134-7-7-7H46.82c-3.866,0-7,3.134-7,7v26.939C39.82,167.333,42.954,170.466,46.82,170.466z&#10;&#9; M53.82,143.527h12.94v12.939H53.82V143.527z M73.761,244.844h-26.94c-3.866,0-7,3.134-7,7v26.94c0,3.866,3.134,7,7,7h26.94&#10;&#9;c3.866,0,7-3.134,7-7v-26.94C80.761,247.978,77.627,244.844,73.761,244.844z M66.761,271.785h-12.94v-12.94h12.94V271.785z&#10;&#9; M315.849,187.186H288.91c-3.866,0-7,3.134-7,7v26.94c0,3.866,3.134,7,7,7h26.938c3.866,0,7-3.134,7-7v-26.94&#10;&#9;C322.849,190.32,319.715,187.186,315.849,187.186z M308.849,214.126H295.91v-12.94h12.938V214.126z M371.268,244.844h-26.94&#10;&#9;c-3.866,0-7,3.134-7,7v26.94c0,3.866,3.134,7,7,7h26.94c3.866,0,7-3.134,7-7v-26.94&#10;&#9;C378.268,247.978,375.134,244.844,371.268,244.844z M364.268,271.785h-12.94v-12.94h12.94V271.785z M156.108,170.466h26.94&#10;&#9;c3.866,0,7-3.134,7-7v-26.939c0-3.866-3.134-7-7-7h-26.94c-3.866,0-7,3.134-7,7v26.939&#10;&#9;C149.108,167.333,152.243,170.466,156.108,170.466z M163.108,143.527h12.94v12.939h-12.94V143.527z M127.302,187.186&#10;&#9;c-3.866,0-7,3.134-7,7v26.94c0,3.866,3.134,7,7,7h26.94c3.866,0,7-3.134,7-7v-26.94c0-3.866-3.134-7-7-7H127.302z M147.242,214.126&#10;&#9;h-12.94v-12.94h12.94V214.126z" transform="matrix(1, 0, 0, 1, 2.842170943040401e-14, 2.842170943040401e-14)"/>
  <path d="M 207.646 26.264 L 352.07 84.813 L 63.222 84.813 L 207.646 26.264 Z" style="stroke: rgb(0, 0, 0);" transform="matrix(1, 0, 0, 1, 2.842170943040401e-14, 2.842170943040401e-14)" bx:shape="triangle 63.222 26.264 288.848 58.549 0.5 0 1@d8ceaf1b"/>
</svg>