<?xml version="1.0" standalone="no"?>
<!DOCTYPE svg PUBLIC "-//W3C//DTD SVG 20010904//EN"
 "http://www.w3.org/TR/2001/REC-SVG-20010904/DTD/svg10.dtd">
<svg version="1.0" xmlns="http://www.w3.org/2000/svg"
 width="300.000000pt" height="300.000000pt" viewBox="0 0 300.000000 300.000000"
 preserveAspectRatio="xMidYMid meet">
<g transform="translate(0.000000,300.000000) scale(0.100000,-0.100000)"
fill="#000000" stroke="none">
<path d="M310 2481 c-51 -14 -50 -3 -47 -794 2 -718 3 -739 21 -753 30 -21
2402 -21 2432 0 19 14 19 34 19 765 0 707 -1 751 -18 768 -17 17 -80 18 -1200
20 -650 0 -1193 -2 -1207 -6z m2210 -781 l0 -570 -1020 0 -1020 0 0 570 0 570
1020 0 1020 0 0 -570z"/>
<path d="M4 797 c-14 -39 69 -165 139 -212 114 -74 33 -70 1357 -70 1324 0
1243 -4 1357 70 70 47 153 173 139 212 -8 19 -2984 19 -2992 0z m1721 -137 l0
-45 -225 0 -225 0 -3 33 c-6 65 -15 63 230 60 l223 -3 0 -45z"/>
</g>
</svg>
