<?xml version="1.0" standalone="no"?>
<!DOCTYPE svg PUBLIC "-//W3C//DTD SVG 20010904//EN"
 "http://www.w3.org/TR/2001/REC-SVG-20010904/DTD/svg10.dtd">
<svg version="1.0" xmlns="http://www.w3.org/2000/svg"
 width="300.000000pt" height="300.000000pt" viewBox="0 0 300.000000 300.000000"
 preserveAspectRatio="xMidYMid meet">
<g transform="translate(0.000000,300.000000) scale(0.100000,-0.100000)"
fill="#000000" stroke="none">
<path d="M370 2568 c-76 -29 -160 -114 -188 -191 -22 -57 -22 -65 -22 -752 0
-687 0 -695 22 -752 29 -79 112 -162 191 -191 56 -21 72 -22 452 -22 217 0
395 -2 395 -5 0 -3 -20 -46 -45 -95 l-45 -90 -135 0 c-83 0 -144 -5 -160 -12
-27 -12 -55 -54 -55 -83 0 -29 28 -71 55 -83 37 -17 1293 -17 1330 0 27 12 55
54 55 83 0 29 -28 71 -55 83 -16 7 -77 12 -160 12 l-135 0 -45 90 c-25 49 -45
92 -45 95 0 3 178 5 395 5 380 0 396 1 452 22 79 29 162 112 191 191 22 57 22
65 22 752 0 687 0 695 -22 752 -29 79 -112 162 -191 191 l-58 22 -1072 -1
c-1065 0 -1072 0 -1127 -21z m2210 -185 c19 -12 44 -37 55 -55 19 -32 20 -51
20 -703 0 -652 -1 -671 -20 -703 -11 -18 -36 -43 -55 -55 l-35 -22 -1045 0
-1045 0 -35 22 c-19 12 -44 37 -55 55 -19 32 -20 53 -23 681 -2 431 1 661 8
687 13 47 59 96 103 109 19 6 450 9 1062 8 l1030 -2 35 -22z"/>
</g>
</svg>
