<?xml version="1.0" encoding="utf-8"?>
<svg fill="#000000" version="1.1" id="Capa_1" viewBox="0 0 356.572 356.572" xmlns="http://www.w3.org/2000/svg">
  <defs/>
  <path d="M 181.563 0 C 120.762 0 59.215 30.525 59.215 88.873 L 59.215 237.5 C 59.215 303.158 112.627 356.571 178.286 356.571 C 243.944 356.571 297.356 303.158 297.356 237.5 L 297.356 88.873 C 297.356 27.809 237.336 0 181.563 0 Z M 274.945 237.5 C 274.945 290.803 231.583 334.157 178.286 334.157 C 124.987 334.157 81.629 290.803 81.629 237.5 L 81.629 167.987 C 101.643 174.042 139.314 183.202 183.85 183.202 C 212.365 183.202 243.681 179.393 274.945 168.635 L 274.945 237.5 Z M 274.945 144.794 C 193.262 176.027 106.592 152.51 81.629 144.43 L 81.629 88.873 C 81.629 45.705 133.118 22.413 181.563 22.413 C 228.044 22.413 274.945 42.96 274.945 88.873 L 274.945 144.794 Z M 190.893 48.389 L 190.893 129.637 C 190.893 135.824 185.87 140.845 179.687 140.845 C 173.502 140.845 168.48 135.824 168.48 129.637 L 168.48 48.389 C 168.48 42.203 173.501 37.182 179.687 37.182 C 185.869 37.182 190.893 42.203 190.893 48.389 Z M 176.755 125.972 C 176.755 125.972 181.234 110.2 187.663 117.822 C 171.784 120.624 188.504 115.05 188.504 115.05 C 187.955 114.635 176.755 125.972 176.755 125.972 Z"/>
</svg>