<?xml version="1.0" encoding="UTF-8"?>
<svg id="_图层_2" data-name="图层 2" xmlns="http://www.w3.org/2000/svg" viewBox="0 0 800 600">
  <defs>
    <style>
      .cls-1 {
        fill: #fff;
        opacity: .8;
      }

      .cls-1, .cls-2 {
        stroke-width: 0px;
      }

      .cls-2 {
        fill: #292a2a;
      }
    </style>
  </defs>
  <g id="_图层_1-2" data-name="图层 1">
    <rect class="cls-1" width="800" height="600"/>
    <g>
      <path class="cls-2" d="m203.61,259.85c-1.09-.66-1.97-1.53-2.63-2.63-.66-1.09-.98-2.3-.98-3.61v-20.16c0-1.31.33-2.52.98-3.61.66-1.09,1.53-1.97,2.63-2.62,1.09-.66,2.3-.98,3.61-.98h20.76c1.35,0,2.57.33,3.67.98,1.09.66,1.97,1.53,2.63,2.62.66,1.09.98,2.3.98,3.61v20.16c0,1.31-.33,2.52-.98,3.61-.66,1.09-1.53,1.97-2.63,2.63-1.09.66-2.32.98-3.67.98h-20.76c-1.31,0-2.52-.33-3.61-.98Zm3.61-3.91h20.76c.64,0,1.18-.23,1.64-.69s.69-1,.69-1.64v-20.16c0-.64-.23-1.18-.69-1.64-.46-.46-1-.69-1.64-.69h-20.76c-.64,0-1.18.23-1.64.69s-.69,1-.69,1.64v20.16c0,.64.23,1.18.69,1.64.46.46,1,.69,1.64.69Z"/>
      <path class="cls-2" d="m241.46,274.55v-48.32h28.04c1.31,0,2.52.33,3.61.98,1.09.66,1.97,1.53,2.63,2.62.66,1.09.98,2.3.98,3.61v20.16c0,1.31-.33,2.52-.98,3.61-.66,1.09-1.53,1.97-2.63,2.63-1.09.66-2.3.98-3.61.98h-23.15v13.72h-4.89Zm7.28-18.61h20.76c.64,0,1.18-.23,1.64-.69s.69-1,.69-1.64v-20.16c0-.64-.23-1.18-.69-1.64-.46-.46-1-.69-1.64-.69h-20.76c-.64,0-1.19.23-1.67.69-.48.46-.72,1-.72,1.64v20.16c0,.64.24,1.18.72,1.64.48.46,1.03.69,1.67.69Z"/>
      <path class="cls-2" d="m284.5,259.85c-1.09-.66-1.97-1.53-2.63-2.63-.66-1.09-.98-2.3-.98-3.61v-20.16c0-1.31.33-2.52.98-3.61.66-1.09,1.53-1.97,2.63-2.62,1.09-.66,2.3-.98,3.61-.98h20.76c1.35,0,2.57.33,3.67.98,1.09.66,1.97,1.53,2.63,2.62.66,1.09.98,2.3.98,3.61v12.53h-30.37v7.64c0,.64.23,1.18.69,1.64.46.46,1,.69,1.64.69h28.04v4.89h-28.04c-1.31,0-2.52-.33-3.61-.98Zm1.28-18.76h25.41v-7.64c0-.64-.23-1.18-.69-1.64-.46-.46-1-.69-1.64-.69h-20.76c-.64,0-1.18.23-1.64.69s-.69,1-.69,1.64v7.64Z"/>
      <path class="cls-2" d="m322.35,260.83v-34.6h28.04c1.31,0,2.52.33,3.61.98,1.09.66,1.97,1.53,2.63,2.62.66,1.09.98,2.3.98,3.61v27.38h-4.89v-27.38c0-.64-.23-1.18-.69-1.64-.46-.46-1-.69-1.64-.69h-20.76c-.64,0-1.19.23-1.67.69-.48.46-.72,1-.72,1.64v27.38h-4.89Z"/>
      <path class="cls-2" d="m367.37,259.85c-1.09-.66-1.96-1.53-2.6-2.63-.64-1.09-.95-2.3-.95-3.61v-38.72h4.89v11.33h14.97v4.89h-14.97v22.49c0,.64.23,1.18.69,1.64.46.46,1,.69,1.64.69h12.65v4.89h-12.65c-1.35,0-2.58-.33-3.67-.98Z"/>
      <path class="cls-2" d="m391.77,259.85c-1.09-.66-1.97-1.53-2.63-2.63-.66-1.09-.98-2.3-.98-3.61v-20.16c0-1.31.33-2.52.98-3.61.66-1.09,1.53-1.97,2.63-2.62,1.09-.66,2.3-.98,3.61-.98h20.76c1.35,0,2.57.33,3.67.98,1.09.66,1.97,1.53,2.63,2.62.66,1.09.98,2.3.98,3.61v12.53h-30.37v7.64c0,.64.23,1.18.69,1.64.46.46,1,.69,1.64.69h28.04v4.89h-28.04c-1.31,0-2.52-.33-3.61-.98Zm1.28-18.76h25.41v-7.64c0-.64-.23-1.18-.69-1.64-.46-.46-1-.69-1.64-.69h-20.76c-.64,0-1.18.23-1.64.69s-.69,1-.69,1.64v7.64Z"/>
      <path class="cls-2" d="m429.2,260.83v-27.38c0-1.31.33-2.52.98-3.61.66-1.09,1.53-1.97,2.63-2.62,1.09-.66,2.3-.98,3.61-.98h19.45v4.89h-19.45c-.64,0-1.18.23-1.64.69-.46.46-.69,1-.69,1.64v27.38h-4.89Z"/>
      <path class="cls-2" d="m459.81,260.83v-38.72c0-1.35.32-2.58.95-3.67.64-1.09,1.5-1.96,2.6-2.6,1.09-.64,2.32-.95,3.67-.95h12.65v4.89h-12.65c-.64,0-1.18.23-1.64.69s-.69,1-.69,1.64v4.12h14.97v4.89h-14.97v29.71h-4.89Z"/>
      <path class="cls-2" d="m491.24,260.83c-1.31,0-2.52-.33-3.61-.98-1.09-.66-1.97-1.53-2.63-2.63-.66-1.09-.98-2.3-.98-3.61v-12.53h30.31v-7.64c0-.64-.23-1.18-.69-1.64-.46-.46-1.01-.69-1.64-.69h-27.98v-4.89h27.98c1.35,0,2.57.33,3.67.98,1.09.66,1.97,1.53,2.63,2.62.66,1.09.98,2.3.98,3.61v27.38h-28.04Zm0-4.89h23.09v-9.96h-25.41v7.64c0,.64.23,1.18.69,1.64.46.46,1,.69,1.64.69Z"/>
      <path class="cls-2" d="m528.38,259.85c-1.09-.66-1.97-1.53-2.63-2.63-.66-1.09-.98-2.3-.98-3.61v-20.16c0-1.31.33-2.52.98-3.61.66-1.09,1.53-1.97,2.63-2.62,1.09-.66,2.3-.98,3.61-.98h27.92v4.89h-27.92c-.64,0-1.18.23-1.64.69-.46.46-.69,1-.69,1.64v20.16c0,.64.23,1.18.69,1.64.46.46,1,.69,1.64.69h28.04v4.89h-28.04c-1.31,0-2.52-.33-3.61-.98Z"/>
      <path class="cls-2" d="m568.35,259.85c-1.09-.66-1.97-1.53-2.63-2.63-.66-1.09-.98-2.3-.98-3.61v-20.16c0-1.31.33-2.52.98-3.61.66-1.09,1.53-1.97,2.63-2.62,1.09-.66,2.3-.98,3.61-.98h20.76c1.35,0,2.57.33,3.67.98,1.09.66,1.97,1.53,2.63,2.62.66,1.09.98,2.3.98,3.61v12.53h-30.37v7.64c0,.64.23,1.18.69,1.64.46.46,1,.69,1.64.69h28.04v4.89h-28.04c-1.31,0-2.52-.33-3.61-.98Zm1.28-18.76h25.41v-7.64c0-.64-.23-1.18-.69-1.64-.46-.46-1-.69-1.64-.69h-20.76c-.64,0-1.18.23-1.64.69s-.69,1-.69,1.64v7.64Z"/>
    </g>
  </g>
</svg>