<?xml version="1.0" encoding="utf-8"?>
<svg viewBox="0 0 412.998 412.998" fill="#000000" xmlns="http://www.w3.org/2000/svg">
  <g>
    <path d="M392.998,28.339H20c-11.046,0-20,8.954-20,20v234c0,11.046,8.954,20,20,20h139.499v45.32h-54.283&#10;&#9;&#9;&#9;&#9;c-10.201,0-18.5,8.299-18.5,18.5s8.299,18.5,18.5,18.5h202.566c10.201,0,18.5-8.299,18.5-18.5s-8.299-18.5-18.5-18.5h-54.283&#10;&#9;&#9;&#9;&#9;v-45.32h139.499c11.046,0,20-8.954,20-20v-234C412.998,37.293,404.044,28.339,392.998,28.339z M382.998,272.339H30v-214h352.998&#10;&#9;&#9;&#9;&#9;V272.339z"/>
  </g>
  <path fill-rule="nonzero" d="M 89.906 387.186 L 100.664 387.186 C 110.119 387.186 118.72 383.314 124.956 377.079 C 131.191 370.846 135.06 362.245 135.06 352.787 L 135.06 316.006 L 55.51 316.006 L 55.51 352.787 C 55.51 362.245 59.38 370.846 65.614 377.079 C 71.847 383.314 80.451 387.186 89.906 387.186 Z M 135.06 310.594 L 135.06 293.348 C 135.06 283.893 131.191 275.293 124.956 269.056 C 118.72 262.823 110.119 258.952 100.664 258.952 L 97.991 258.952 L 97.991 273.935 C 101.028 275.051 103.212 277.985 103.212 281.38 L 103.212 292.851 C 103.212 296.246 101.022 299.177 97.991 300.295 L 97.991 310.594 L 135.06 310.594 Z M 92.579 310.594 L 92.579 300.295 C 89.55 299.181 87.357 296.259 87.357 292.851 L 87.357 281.38 C 87.357 277.972 89.543 275.046 92.579 273.933 L 92.579 258.952 L 89.906 258.952 C 80.451 258.952 71.847 262.823 65.614 269.056 C 59.38 275.293 55.51 283.893 55.51 293.348 L 55.51 310.594 L 92.579 310.594 Z M 50.098 293.348 C 50.098 282.401 54.576 272.443 61.79 265.233 C 69.001 258.018 78.959 253.54 89.906 253.54 L 100.664 253.54 C 111.612 253.54 121.569 258.018 128.78 265.233 C 135.993 272.443 140.472 282.401 140.472 293.348 L 140.472 352.787 C 140.472 363.738 135.993 373.693 128.78 380.906 C 121.569 388.12 111.612 392.598 100.664 392.598 L 89.906 392.598 C 78.959 392.598 69.001 388.12 61.79 380.906 C 54.576 373.693 50.098 363.738 50.098 352.787 L 50.098 293.348 Z" style="stroke-width: 2px; transform-origin: 95.285px 323.069px;" transform="matrix(0.772908806801, -0.634517014027, 0.634517014027, 0.772908806801, 0.000016110732, -0.000038617733)"/>
</svg>