<?xml version="1.0" standalone="no"?>
<!DOCTYPE svg PUBLIC "-//W3C//DTD SVG 20010904//EN"
 "http://www.w3.org/TR/2001/REC-SVG-20010904/DTD/svg10.dtd">
<svg version="1.0" xmlns="http://www.w3.org/2000/svg"
 width="512.000000pt" height="512.000000pt" viewBox="0 0 512.000000 512.000000"
 preserveAspectRatio="xMidYMid meet">
<g transform="translate(0.000000,512.000000) scale(0.050000,-0.050000)"
fill="#000000" stroke="none">
<path d="M6049 10100 c-844 -86 -1579 -704 -1819 -1531 -84 -292 -90 -471 -90
-2917 -1 -2614 7 -2470 -154 -2792 -520 -1042 -2020 -1034 -2533 12 -142 289
-139 263 -148 1433 l-7 1055 249 0 c215 0 255 5 296 38 l47 38 5 1127 c7 1321
14 1277 -215 1277 l-78 0 -6 442 c-8 576 65 518 -657 518 l-556 0 -42 -53
c-39 -49 -41 -78 -41 -480 l0 -427 -97 0 c-75 0 -109 -11 -150 -49 l-53 -49 0
-1139 c0 -1373 -39 -1229 333 -1243 l257 -10 11 -1100 c13 -1256 21 -1322 223
-1717 871 -1710 3410 -1467 3946 378 84 292 90 471 90 2917 1 2612 -7 2468
153 2792 514 1041 2021 1034 2534 -12 142 -288 139 -267 148 -1401 l7 -1024
-250 -6 c-230 -6 -255 -11 -297 -53 l-45 -45 0 -1147 c0 -1322 -13 -1232 183
-1232 l107 0 0 -419 c0 -607 -52 -565 686 -557 672 8 601 -53 614 522 l10 444
104 6 c198 11 186 -66 186 1226 0 792 -7 1131 -23 1166 -32 71 -113 92 -360
92 l-217 0 0 1012 c0 1108 -9 1215 -130 1537 -342 906 -1252 1469 -2221 1371z
m-4769 -1930 l0 -331 -335 6 -335 5 -5 325 -6 325 341 0 340 0 0 -330z m7110
-4810 l0 -330 -335 -5 -335 -6 0 341 0 341 335 -6 335 -5 0 -330z"/>
</g>
</svg>
