<?xml version="1.0" encoding="utf-8"?><!-- Uploaded to: SVG Repo, www.svgrepo.com, Generator: SVG Repo Mixer Tools -->
<svg width="800px" height="800px" viewBox="0 0 24 24" fill="none" xmlns="http://www.w3.org/2000/svg">
  <path d="M 20 20 L 14.95 14.95 M 14.95 14.95 C 16.217 13.683 17 11.933 17 10 C 17 6.134 13.866 3 10 3 C 6.134 3 3 6.134 3 10 M 14.95 14.95 C 13.683 16.217 11.933 17 10 17 C 8.093 17 6.364 16.237 5.101 15 M 7.138 7.551 L 12.78 13.082" stroke="#000000" stroke-width="1.5" stroke-linecap="round" stroke-linejoin="round" transform="matrix(1, 0, 0, 1, -4.440892098500626e-16, 0)"/>
  <path style="fill: rgb(216, 216, 216); stroke: rgb(0, 0, 0);" d="M 6.881 7.458 L 7.211 10.569" transform="matrix(1, 0, 0, 1, -4.440892098500626e-16, 0)"/>
  <path style="fill: rgb(216, 216, 216); stroke: rgb(0, 0, 0);" d="M 7.101 7.266 L 10.211 7.707" transform="matrix(1, 0, 0, 1, -4.440892098500626e-16, 0)"/>
  <path style="fill: rgb(216, 216, 216); stroke: rgb(0, 0, 0);" d="M 12.853 13.349 L 9.661 13.046" transform="matrix(1, 0, 0, 1, -4.440892098500626e-16, 0)"/>
  <path style="fill: rgb(216, 216, 216); stroke: rgb(0, 0, 0);" d="M 13.018 13.128 L 12.936 10.101" transform="matrix(1, 0, 0, 1, -4.440892098500626e-16, 0)"/>
</svg>